<svg width="109" height="65" viewBox="0 0 109 65" fill="none" xmlns="http://www.w3.org/2000/svg">
<path d="M101.434 61.4769C100.423 61.4762 99.4231 61.2632 98.4996 60.8517C98.2848 60.7563 98.0799 60.6399 97.888 60.5042L79.2208 47.3642C78.2741 46.6978 77.5015 45.8136 76.9681 44.786C76.4347 43.7585 76.1561 42.6178 76.1559 41.4601V23.5399C76.1561 22.3822 76.4347 21.2415 76.9681 20.2139C77.5015 19.1864 78.2741 18.3022 79.2208 17.6358L97.888 4.49582C98.0799 4.36005 98.2848 4.24363 98.4996 4.14825C99.5992 3.65939 100.804 3.45302 102.003 3.54791C103.203 3.6428 104.36 4.03594 105.369 4.6916C106.378 5.34727 107.207 6.24468 107.781 7.30229C108.355 8.3599 108.656 9.54419 108.656 10.7476V54.2524C108.656 56.1679 107.895 58.0049 106.541 59.3593C105.186 60.7137 103.349 61.4746 101.434 61.4746V61.4769Z" fill="#FF9862"/>
<path d="M56.875 65H15.3472C11.2782 64.9958 7.37697 63.3775 4.49972 60.5003C1.62246 57.623 0.00418228 53.7218 0 49.6528V15.3472C0.00418228 11.2782 1.62246 7.37697 4.49972 4.49972C7.37697 1.62246 11.2782 0.00418228 15.3472 0H56.9833C61.0235 0.00477841 64.8968 1.61183 67.7536 4.46864C70.6104 7.32545 72.2174 11.1988 72.2222 15.2389V49.6528C72.218 53.7218 70.5998 57.623 67.7225 60.5003C64.8453 63.3775 60.9441 64.9958 56.875 65Z" fill="#FF9862"/>
<path d="M58.485 25.4143C57.9538 24.1519 57.0714 23.2417 55.9324 22.7832L55.9171 22.7775C55.3987 22.5744 54.8467 22.4705 54.29 22.4712H54.2287C51.6216 22.5104 48.9599 24.7261 47.6065 27.9851C46.614 30.3683 46.5001 32.9314 47.3021 34.8418C47.8324 36.1052 48.7167 37.0154 49.8605 37.4739L49.8729 37.4787C50.3914 37.6816 50.9433 37.7855 51.5 37.785C54.1321 37.785 56.8216 35.5692 58.1998 32.2672C59.1799 29.8869 59.288 27.3257 58.485 25.4143Z" fill="#4C4C4C"/>
<path d="M48.0677 39.4704C46.5641 38.5669 45.1428 37.7122 44.2144 36.177C41.6532 31.9274 40.1065 29.3624 36.0512 29.3624C31.9959 29.3624 30.4454 31.9274 27.8784 36.177C26.9481 37.7141 25.524 38.5698 24.0155 39.4771C22.286 40.5165 20.4991 41.5904 19.7277 43.7037C19.4278 44.4655 19.2767 45.2778 19.2826 46.0965C19.2826 49.5373 21.9625 52.3368 25.255 52.3368C26.9539 52.3368 28.7619 51.7482 30.6751 51.1251C32.5147 50.526 34.4165 49.9067 36.0608 49.9067C37.7051 49.9067 39.6021 50.526 41.4349 51.1251C43.3444 51.7444 45.1437 52.333 46.8474 52.333C50.1351 52.333 52.8102 49.5335 52.8102 46.0926C52.8129 45.2733 52.6586 44.4611 52.3556 43.6999C51.5841 41.5847 49.7963 40.5098 48.0677 39.4704Z" fill="#4C4C4C"/>
<path d="M25.9059 25.9981C27.0448 27.4271 28.4901 28.2138 29.9755 28.2138C30.1783 28.2138 30.3808 28.1988 30.5814 28.1689C33.6795 27.7133 35.61 23.9327 34.9764 19.5549C34.7113 17.7143 34.003 16.0002 32.9885 14.7291C31.8514 13.303 30.4043 12.5172 28.9198 12.5172C28.717 12.5172 28.5145 12.5323 28.314 12.5622C25.2158 13.0178 23.2853 16.7984 23.9189 21.1762C24.1831 23.0139 24.8913 24.7261 25.9059 25.9981Z" fill="#4C4C4C"/>
<path d="M41.5221 28.1689C41.7226 28.1988 41.9252 28.2138 42.1279 28.2138C43.6143 28.2138 45.0586 27.4271 46.1976 25.9981C47.2111 24.7261 47.9156 23.0139 48.1836 21.1743C48.8172 16.7984 46.8867 13.0178 43.7885 12.5603C43.588 12.5304 43.3855 12.5153 43.1827 12.5153C41.6982 12.5172 40.251 13.303 39.114 14.7291C38.0995 16.0002 37.3912 17.7143 37.127 19.5568C36.4934 23.9327 38.4239 27.7133 41.5221 28.1689Z" fill="#4C4C4C"/>
<path d="M22.2297 37.4787L22.2431 37.4739C23.3849 37.0154 24.2683 36.1062 24.7976 34.8438C25.5996 32.9295 25.4867 30.3693 24.4961 27.9861C23.1246 24.6879 20.436 22.4712 17.8068 22.4712C17.2501 22.4704 16.6981 22.5743 16.1798 22.7775L16.1664 22.7823C15.0274 23.2369 14.144 24.15 13.6147 25.4124C12.8127 27.3266 12.9256 29.8869 13.9162 32.2701C15.2877 35.5683 17.9763 37.785 20.6054 37.785C21.1612 37.7854 21.7122 37.6815 22.2297 37.4787Z" fill="#4C4C4C"/>
</svg>
